<?xml version="1.0" encoding="UTF-8"?>
<svg xmlns="http://www.w3.org/2000/svg" xmlns:xlink="http://www.w3.org/1999/xlink" width="504pt" height="360pt" viewBox="0 0 504 360" version="1.1">
<defs>
<g>
<symbol overflow="visible" id="glyph0-0">
<path style="stroke:none;" d="M 0.4375 0 L 0.4375 -6.59375 L 3.953125 -6.59375 L 3.953125 0 Z M 3.515625 -0.4375 L 3.515625 -6.15625 L 0.875 -6.15625 L 0.875 -0.4375 Z M 3.515625 -0.4375 "/>
</symbol>
<symbol overflow="visible" id="glyph0-1">
<path style="stroke:none;" d="M 2.40625 0.046875 C 2.28125 0.046875 2.144531 0.0390625 2 0.03125 C 1.851562 0.03125 1.707031 0.0234375 1.5625 0.015625 C 1.425781 0.00390625 1.285156 -0.00390625 1.140625 -0.015625 C 1.003906 -0.0351562 0.875 -0.0625 0.75 -0.09375 L 0.75 -6.015625 C 0.875 -6.035156 1.003906 -6.054688 1.140625 -6.078125 C 1.285156 -6.097656 1.425781 -6.113281 1.5625 -6.125 C 1.707031 -6.132812 1.847656 -6.140625 1.984375 -6.140625 C 2.128906 -6.148438 2.265625 -6.15625 2.390625 -6.15625 C 2.742188 -6.15625 3.070312 -6.128906 3.375 -6.078125 C 3.6875 -6.023438 3.953125 -5.9375 4.171875 -5.8125 C 4.398438 -5.6875 4.578125 -5.519531 4.703125 -5.3125 C 4.835938 -5.101562 4.90625 -4.851562 4.90625 -4.5625 C 4.90625 -4.226562 4.828125 -3.953125 4.671875 -3.734375 C 4.515625 -3.515625 4.300781 -3.351562 4.03125 -3.25 C 4.394531 -3.144531 4.679688 -2.976562 4.890625 -2.75 C 5.097656 -2.519531 5.203125 -2.195312 5.203125 -1.78125 C 5.203125 -1.175781 4.976562 -0.71875 4.53125 -0.40625 C 4.082031 -0.101562 3.375 0.046875 2.40625 0.046875 Z M 1.59375 -2.84375 L 1.59375 -0.6875 C 1.664062 -0.6875 1.742188 -0.679688 1.828125 -0.671875 C 1.898438 -0.671875 1.988281 -0.664062 2.09375 -0.65625 C 2.195312 -0.65625 2.316406 -0.65625 2.453125 -0.65625 C 2.703125 -0.65625 2.941406 -0.671875 3.171875 -0.703125 C 3.398438 -0.734375 3.597656 -0.789062 3.765625 -0.875 C 3.929688 -0.957031 4.066406 -1.070312 4.171875 -1.21875 C 4.273438 -1.363281 4.328125 -1.550781 4.328125 -1.78125 C 4.328125 -1.976562 4.285156 -2.144531 4.203125 -2.28125 C 4.128906 -2.414062 4.019531 -2.523438 3.875 -2.609375 C 3.738281 -2.691406 3.566406 -2.75 3.359375 -2.78125 C 3.160156 -2.820312 2.941406 -2.84375 2.703125 -2.84375 Z M 1.59375 -3.53125 L 2.5 -3.53125 C 2.707031 -3.53125 2.90625 -3.539062 3.09375 -3.5625 C 3.28125 -3.59375 3.441406 -3.644531 3.578125 -3.71875 C 3.722656 -3.800781 3.832031 -3.90625 3.90625 -4.03125 C 3.988281 -4.15625 4.03125 -4.3125 4.03125 -4.5 C 4.03125 -4.675781 3.988281 -4.820312 3.90625 -4.9375 C 3.820312 -5.0625 3.707031 -5.160156 3.5625 -5.234375 C 3.425781 -5.304688 3.257812 -5.359375 3.0625 -5.390625 C 2.863281 -5.421875 2.660156 -5.4375 2.453125 -5.4375 C 2.234375 -5.4375 2.0625 -5.429688 1.9375 -5.421875 C 1.8125 -5.421875 1.695312 -5.414062 1.59375 -5.40625 Z M 1.59375 -3.53125 "/>
</symbol>
<symbol overflow="visible" id="glyph0-2">
<path style="stroke:none;" d="M 3.734375 -2.546875 C 3.828125 -2.429688 3.945312 -2.273438 4.09375 -2.078125 C 4.238281 -1.890625 4.382812 -1.679688 4.53125 -1.453125 C 4.6875 -1.222656 4.835938 -0.984375 4.984375 -0.734375 C 5.140625 -0.484375 5.269531 -0.238281 5.375 0 L 4.4375 0 C 4.320312 -0.21875 4.195312 -0.441406 4.0625 -0.671875 C 3.925781 -0.898438 3.785156 -1.117188 3.640625 -1.328125 C 3.503906 -1.535156 3.363281 -1.726562 3.21875 -1.90625 C 3.082031 -2.09375 2.957031 -2.253906 2.84375 -2.390625 C 2.769531 -2.390625 2.691406 -2.390625 2.609375 -2.390625 C 2.535156 -2.390625 2.457031 -2.390625 2.375 -2.390625 L 1.609375 -2.390625 L 1.609375 0 L 0.75 0 L 0.75 -6.015625 C 1 -6.066406 1.269531 -6.101562 1.5625 -6.125 C 1.851562 -6.144531 2.125 -6.15625 2.375 -6.15625 C 3.226562 -6.15625 3.878906 -5.992188 4.328125 -5.671875 C 4.773438 -5.347656 5 -4.867188 5 -4.234375 C 5 -3.828125 4.890625 -3.476562 4.671875 -3.1875 C 4.460938 -2.90625 4.148438 -2.691406 3.734375 -2.546875 Z M 2.453125 -5.40625 C 2.085938 -5.40625 1.804688 -5.398438 1.609375 -5.390625 L 1.609375 -3.09375 L 2.21875 -3.09375 C 2.507812 -3.09375 2.769531 -3.101562 3 -3.125 C 3.238281 -3.15625 3.4375 -3.210938 3.59375 -3.296875 C 3.757812 -3.378906 3.882812 -3.492188 3.96875 -3.640625 C 4.0625 -3.796875 4.109375 -3.992188 4.109375 -4.234375 C 4.109375 -4.460938 4.0625 -4.65625 3.96875 -4.8125 C 3.882812 -4.96875 3.765625 -5.085938 3.609375 -5.171875 C 3.460938 -5.253906 3.285156 -5.3125 3.078125 -5.34375 C 2.878906 -5.382812 2.671875 -5.40625 2.453125 -5.40625 Z M 2.453125 -5.40625 "/>
</symbol>
<symbol overflow="visible" id="glyph0-3">
<path style="stroke:none;" d="M 4.59375 -6.09375 L 5.4375 -6.09375 L 5.4375 0 L 4.59375 0 L 4.59375 -2.8125 L 1.609375 -2.8125 L 1.609375 0 L 0.75 0 L 0.75 -6.09375 L 1.609375 -6.09375 L 1.609375 -3.546875 L 4.59375 -3.546875 Z M 4.59375 -6.09375 "/>
</symbol>
<symbol overflow="visible" id="glyph0-4">
<path style="stroke:none;" d="M 4.828125 -6.09375 L 4.828125 -5.359375 L 2.90625 -5.359375 L 2.90625 0 L 2.0625 0 L 2.0625 -5.359375 L 0.140625 -5.359375 L 0.140625 -6.09375 Z M 4.828125 -6.09375 "/>
</symbol>
<symbol overflow="visible" id="glyph0-5">
<path style="stroke:none;" d="M 3.5 -0.84375 C 3.4375 -0.988281 3.351562 -1.164062 3.25 -1.375 C 3.15625 -1.59375 3.050781 -1.828125 2.9375 -2.078125 C 2.832031 -2.335938 2.71875 -2.597656 2.59375 -2.859375 C 2.46875 -3.128906 2.347656 -3.378906 2.234375 -3.609375 C 2.117188 -3.847656 2.015625 -4.0625 1.921875 -4.25 C 1.828125 -4.445312 1.75 -4.59375 1.6875 -4.6875 C 1.625 -4 1.570312 -3.25 1.53125 -2.4375 C 1.488281 -1.632812 1.453125 -0.820312 1.421875 0 L 0.59375 0 C 0.613281 -0.53125 0.640625 -1.0625 0.671875 -1.59375 C 0.703125 -2.132812 0.734375 -2.660156 0.765625 -3.171875 C 0.804688 -3.691406 0.847656 -4.195312 0.890625 -4.6875 C 0.929688 -5.1875 0.976562 -5.65625 1.03125 -6.09375 L 1.78125 -6.09375 C 1.9375 -5.832031 2.101562 -5.523438 2.28125 -5.171875 C 2.46875 -4.828125 2.648438 -4.460938 2.828125 -4.078125 C 3.015625 -3.691406 3.191406 -3.304688 3.359375 -2.921875 C 3.535156 -2.535156 3.691406 -2.1875 3.828125 -1.875 C 3.972656 -2.1875 4.128906 -2.535156 4.296875 -2.921875 C 4.472656 -3.304688 4.648438 -3.691406 4.828125 -4.078125 C 5.015625 -4.460938 5.195312 -4.828125 5.375 -5.171875 C 5.550781 -5.523438 5.722656 -5.832031 5.890625 -6.09375 L 6.640625 -6.09375 C 6.835938 -4.132812 6.984375 -2.101562 7.078125 0 L 6.25 0 C 6.21875 -0.820312 6.179688 -1.632812 6.140625 -2.4375 C 6.097656 -3.25 6.046875 -4 5.984375 -4.6875 C 5.921875 -4.59375 5.84375 -4.445312 5.75 -4.25 C 5.65625 -4.0625 5.550781 -3.847656 5.4375 -3.609375 C 5.320312 -3.378906 5.203125 -3.128906 5.078125 -2.859375 C 4.953125 -2.597656 4.832031 -2.335938 4.71875 -2.078125 C 4.613281 -1.828125 4.507812 -1.59375 4.40625 -1.375 C 4.3125 -1.164062 4.234375 -0.988281 4.171875 -0.84375 Z M 3.5 -0.84375 "/>
</symbol>
<symbol overflow="visible" id="glyph0-6">
<path style="stroke:none;" d="M 4.421875 0 C 4.328125 -0.175781 4.21875 -0.367188 4.09375 -0.578125 C 3.976562 -0.796875 3.84375 -1.019531 3.6875 -1.25 C 3.539062 -1.476562 3.390625 -1.707031 3.234375 -1.9375 C 3.078125 -2.175781 2.925781 -2.398438 2.78125 -2.609375 C 2.632812 -2.398438 2.476562 -2.175781 2.3125 -1.9375 C 2.15625 -1.707031 2.003906 -1.476562 1.859375 -1.25 C 1.722656 -1.019531 1.59375 -0.796875 1.46875 -0.578125 C 1.34375 -0.367188 1.234375 -0.175781 1.140625 0 L 0.203125 0 C 0.460938 -0.519531 0.765625 -1.046875 1.109375 -1.578125 C 1.460938 -2.109375 1.835938 -2.65625 2.234375 -3.21875 L 0.28125 -6.09375 L 1.265625 -6.09375 L 2.765625 -3.828125 L 4.25 -6.09375 L 5.234375 -6.09375 L 3.3125 -3.25 C 3.71875 -2.6875 4.09375 -2.132812 4.4375 -1.59375 C 4.789062 -1.050781 5.101562 -0.519531 5.375 0 Z M 4.421875 0 "/>
</symbol>
<symbol overflow="visible" id="glyph0-7">
<path style="stroke:none;" d="M 4.484375 -3 L 5.328125 -3 L 5.328125 -0.15625 C 5.253906 -0.125 5.148438 -0.09375 5.015625 -0.0625 C 4.890625 -0.0390625 4.738281 -0.015625 4.5625 0.015625 C 4.394531 0.046875 4.207031 0.0703125 4 0.09375 C 3.789062 0.113281 3.582031 0.125 3.375 0.125 C 2.945312 0.125 2.554688 0.0546875 2.203125 -0.078125 C 1.859375 -0.222656 1.554688 -0.429688 1.296875 -0.703125 C 1.046875 -0.972656 0.851562 -1.300781 0.71875 -1.6875 C 0.582031 -2.082031 0.515625 -2.535156 0.515625 -3.046875 C 0.515625 -3.554688 0.585938 -4.007812 0.734375 -4.40625 C 0.890625 -4.800781 1.097656 -5.132812 1.359375 -5.40625 C 1.628906 -5.675781 1.941406 -5.878906 2.296875 -6.015625 C 2.648438 -6.160156 3.03125 -6.234375 3.4375 -6.234375 C 3.71875 -6.234375 3.960938 -6.210938 4.171875 -6.171875 C 4.390625 -6.140625 4.570312 -6.097656 4.71875 -6.046875 C 4.875 -6.003906 5 -5.957031 5.09375 -5.90625 C 5.195312 -5.863281 5.265625 -5.832031 5.296875 -5.8125 L 5.015625 -5.109375 C 4.847656 -5.210938 4.625 -5.300781 4.34375 -5.375 C 4.0625 -5.445312 3.773438 -5.484375 3.484375 -5.484375 C 3.171875 -5.484375 2.882812 -5.425781 2.625 -5.3125 C 2.375 -5.207031 2.160156 -5.046875 1.984375 -4.828125 C 1.804688 -4.617188 1.664062 -4.363281 1.5625 -4.0625 C 1.46875 -3.757812 1.421875 -3.421875 1.421875 -3.046875 C 1.421875 -2.679688 1.460938 -2.347656 1.546875 -2.046875 C 1.628906 -1.753906 1.753906 -1.5 1.921875 -1.28125 C 2.097656 -1.070312 2.3125 -0.90625 2.5625 -0.78125 C 2.820312 -0.664062 3.125 -0.609375 3.46875 -0.609375 C 3.71875 -0.609375 3.925781 -0.617188 4.09375 -0.640625 C 4.269531 -0.671875 4.398438 -0.703125 4.484375 -0.734375 Z M 4.484375 -3 "/>
</symbol>
<symbol overflow="visible" id="glyph0-8">
<path style="stroke:none;" d="M 4.9375 0 C 4.800781 -0.21875 4.648438 -0.460938 4.484375 -0.734375 C 4.316406 -1.003906 4.132812 -1.28125 3.9375 -1.5625 C 3.75 -1.851562 3.550781 -2.148438 3.34375 -2.453125 C 3.132812 -2.753906 2.925781 -3.039062 2.71875 -3.3125 C 2.519531 -3.59375 2.320312 -3.859375 2.125 -4.109375 C 1.9375 -4.359375 1.757812 -4.578125 1.59375 -4.765625 L 1.59375 0 L 0.75 0 L 0.75 -6.09375 L 1.4375 -6.09375 C 1.707031 -5.800781 2 -5.457031 2.3125 -5.0625 C 2.625 -4.675781 2.9375 -4.273438 3.25 -3.859375 C 3.5625 -3.453125 3.851562 -3.046875 4.125 -2.640625 C 4.394531 -2.242188 4.625 -1.890625 4.8125 -1.578125 L 4.8125 -6.09375 L 5.640625 -6.09375 L 5.640625 0 Z M 4.9375 0 "/>
</symbol>
<symbol overflow="visible" id="glyph0-9">
<path style="stroke:none;" d="M 5.765625 -3.046875 C 5.765625 -2.523438 5.679688 -2.066406 5.515625 -1.671875 C 5.347656 -1.285156 5.113281 -0.960938 4.8125 -0.703125 C 4.519531 -0.453125 4.164062 -0.265625 3.75 -0.140625 C 3.332031 -0.015625 2.875 0.046875 2.375 0.046875 C 2.125 0.046875 1.851562 0.0351562 1.5625 0.015625 C 1.269531 -0.00390625 1 -0.0390625 0.75 -0.09375 L 0.75 -6.015625 C 1 -6.066406 1.269531 -6.101562 1.5625 -6.125 C 1.851562 -6.144531 2.125 -6.15625 2.375 -6.15625 C 2.875 -6.15625 3.332031 -6.09375 3.75 -5.96875 C 4.164062 -5.84375 4.519531 -5.648438 4.8125 -5.390625 C 5.113281 -5.140625 5.347656 -4.816406 5.515625 -4.421875 C 5.679688 -4.035156 5.765625 -3.578125 5.765625 -3.046875 Z M 2.453125 -0.6875 C 3.253906 -0.6875 3.851562 -0.894531 4.25 -1.3125 C 4.65625 -1.726562 4.859375 -2.304688 4.859375 -3.046875 C 4.859375 -3.796875 4.65625 -4.375 4.25 -4.78125 C 3.851562 -5.195312 3.253906 -5.40625 2.453125 -5.40625 C 2.203125 -5.40625 2.007812 -5.398438 1.875 -5.390625 C 1.75 -5.390625 1.660156 -5.390625 1.609375 -5.390625 L 1.609375 -0.71875 C 1.660156 -0.71875 1.75 -0.710938 1.875 -0.703125 C 2.007812 -0.691406 2.203125 -0.6875 2.453125 -0.6875 Z M 2.453125 -0.6875 "/>
</symbol>
<symbol overflow="visible" id="glyph0-10">
<path style="stroke:none;" d="M 5.265625 -6.09375 C 5.085938 -5.894531 4.882812 -5.671875 4.65625 -5.421875 C 4.425781 -5.179688 4.1875 -4.929688 3.9375 -4.671875 C 3.6875 -4.421875 3.4375 -4.171875 3.1875 -3.921875 C 2.945312 -3.679688 2.71875 -3.457031 2.5 -3.25 C 2.75 -3.070312 3.015625 -2.851562 3.296875 -2.59375 C 3.578125 -2.332031 3.851562 -2.054688 4.125 -1.765625 C 4.394531 -1.472656 4.648438 -1.171875 4.890625 -0.859375 C 5.128906 -0.554688 5.328125 -0.269531 5.484375 0 L 4.484375 0 C 4.304688 -0.269531 4.101562 -0.546875 3.875 -0.828125 C 3.644531 -1.109375 3.398438 -1.375 3.140625 -1.625 C 2.890625 -1.882812 2.632812 -2.125 2.375 -2.34375 C 2.113281 -2.5625 1.859375 -2.742188 1.609375 -2.890625 L 1.609375 0 L 0.75 0 L 0.75 -6.09375 L 1.609375 -6.09375 L 1.609375 -3.40625 C 1.816406 -3.59375 2.039062 -3.804688 2.28125 -4.046875 C 2.53125 -4.296875 2.773438 -4.539062 3.015625 -4.78125 C 3.253906 -5.03125 3.476562 -5.269531 3.6875 -5.5 C 3.90625 -5.726562 4.085938 -5.925781 4.234375 -6.09375 Z M 5.265625 -6.09375 "/>
</symbol>
<symbol overflow="visible" id="glyph0-11">
<path style="stroke:none;" d="M 0.75 -6.09375 L 1.609375 -6.09375 L 1.609375 0 L 0.75 0 Z M 0.75 -6.09375 "/>
</symbol>
<symbol overflow="visible" id="glyph0-12">
<path style="stroke:none;" d="M 4.421875 -0.734375 L 4.421875 0 L 0.75 0 L 0.75 -6.09375 L 1.609375 -6.09375 L 1.609375 -0.734375 Z M 4.421875 -0.734375 "/>
</symbol>
<symbol overflow="visible" id="glyph0-13">
<path style="stroke:none;" d="M 3.375 0.125 C 2.945312 0.125 2.554688 0.0546875 2.203125 -0.078125 C 1.859375 -0.222656 1.554688 -0.425781 1.296875 -0.6875 C 1.046875 -0.957031 0.851562 -1.289062 0.71875 -1.6875 C 0.582031 -2.082031 0.515625 -2.535156 0.515625 -3.046875 C 0.515625 -3.554688 0.585938 -4.007812 0.734375 -4.40625 C 0.890625 -4.800781 1.097656 -5.132812 1.359375 -5.40625 C 1.628906 -5.675781 1.941406 -5.878906 2.296875 -6.015625 C 2.648438 -6.160156 3.023438 -6.234375 3.421875 -6.234375 C 3.671875 -6.234375 3.894531 -6.210938 4.09375 -6.171875 C 4.300781 -6.140625 4.476562 -6.097656 4.625 -6.046875 C 4.78125 -6.003906 4.90625 -5.957031 5 -5.90625 C 5.09375 -5.863281 5.15625 -5.832031 5.1875 -5.8125 L 4.9375 -5.109375 C 4.882812 -5.140625 4.804688 -5.175781 4.703125 -5.21875 C 4.609375 -5.257812 4.5 -5.300781 4.375 -5.34375 C 4.25 -5.382812 4.109375 -5.414062 3.953125 -5.4375 C 3.804688 -5.46875 3.660156 -5.484375 3.515625 -5.484375 C 3.191406 -5.484375 2.898438 -5.425781 2.640625 -5.3125 C 2.378906 -5.207031 2.15625 -5.046875 1.96875 -4.828125 C 1.789062 -4.617188 1.65625 -4.363281 1.5625 -4.0625 C 1.46875 -3.757812 1.421875 -3.421875 1.421875 -3.046875 C 1.421875 -2.679688 1.460938 -2.347656 1.546875 -2.046875 C 1.628906 -1.753906 1.753906 -1.5 1.921875 -1.28125 C 2.097656 -1.070312 2.3125 -0.90625 2.5625 -0.78125 C 2.820312 -0.664062 3.117188 -0.609375 3.453125 -0.609375 C 3.847656 -0.609375 4.175781 -0.648438 4.4375 -0.734375 C 4.695312 -0.816406 4.890625 -0.890625 5.015625 -0.953125 L 5.234375 -0.25 C 5.191406 -0.226562 5.117188 -0.191406 5.015625 -0.140625 C 4.910156 -0.0976562 4.773438 -0.0546875 4.609375 -0.015625 C 4.453125 0.0234375 4.269531 0.0546875 4.0625 0.078125 C 3.851562 0.109375 3.625 0.125 3.375 0.125 Z M 3.375 0.125 "/>
</symbol>
<symbol overflow="visible" id="glyph0-14">
<path style="stroke:none;" d="M 4.625 -5.421875 C 4.488281 -5.265625 4.332031 -5.078125 4.15625 -4.859375 C 3.976562 -4.648438 3.789062 -4.414062 3.59375 -4.15625 C 3.394531 -3.894531 3.1875 -3.617188 2.96875 -3.328125 C 2.757812 -3.035156 2.550781 -2.738281 2.34375 -2.4375 C 2.144531 -2.144531 1.953125 -1.851562 1.765625 -1.5625 C 1.585938 -1.269531 1.425781 -0.992188 1.28125 -0.734375 L 4.71875 -0.734375 L 4.71875 0 L 0.296875 0 L 0.296875 -0.578125 C 0.410156 -0.804688 0.550781 -1.0625 0.71875 -1.34375 C 0.882812 -1.625 1.0625 -1.910156 1.25 -2.203125 C 1.445312 -2.492188 1.644531 -2.789062 1.84375 -3.09375 C 2.050781 -3.394531 2.253906 -3.679688 2.453125 -3.953125 C 2.660156 -4.234375 2.859375 -4.492188 3.046875 -4.734375 C 3.242188 -4.972656 3.421875 -5.179688 3.578125 -5.359375 L 0.453125 -5.359375 L 0.453125 -6.09375 L 4.625 -6.09375 Z M 4.625 -5.421875 "/>
</symbol>
<symbol overflow="visible" id="glyph0-15">
<path style="stroke:none;" d="M 0.75 0 L 0.75 -6.09375 L 4.484375 -6.09375 L 4.484375 -5.359375 L 1.609375 -5.359375 L 1.609375 -3.546875 L 4.15625 -3.546875 L 4.15625 -2.84375 L 1.609375 -2.84375 L 1.609375 -0.734375 L 4.703125 -0.734375 L 4.703125 0 Z M 0.75 0 "/>
</symbol>
<symbol overflow="visible" id="glyph0-16">
<path style="stroke:none;" d="M 2.171875 -0.609375 C 3.066406 -0.609375 3.515625 -0.910156 3.515625 -1.515625 C 3.515625 -1.703125 3.472656 -1.863281 3.390625 -2 C 3.304688 -2.132812 3.195312 -2.25 3.0625 -2.34375 C 2.9375 -2.4375 2.785156 -2.519531 2.609375 -2.59375 C 2.429688 -2.664062 2.25 -2.738281 2.0625 -2.8125 C 1.832031 -2.882812 1.617188 -2.96875 1.421875 -3.0625 C 1.222656 -3.15625 1.050781 -3.269531 0.90625 -3.40625 C 0.757812 -3.539062 0.644531 -3.695312 0.5625 -3.875 C 0.476562 -4.0625 0.4375 -4.285156 0.4375 -4.546875 C 0.4375 -5.078125 0.613281 -5.488281 0.96875 -5.78125 C 1.332031 -6.082031 1.835938 -6.234375 2.484375 -6.234375 C 2.847656 -6.234375 3.179688 -6.191406 3.484375 -6.109375 C 3.785156 -6.035156 4.007812 -5.953125 4.15625 -5.859375 L 3.875 -5.15625 C 3.75 -5.238281 3.566406 -5.316406 3.328125 -5.390625 C 3.085938 -5.460938 2.804688 -5.5 2.484375 -5.5 C 2.316406 -5.5 2.160156 -5.476562 2.015625 -5.4375 C 1.878906 -5.40625 1.757812 -5.351562 1.65625 -5.28125 C 1.550781 -5.21875 1.46875 -5.128906 1.40625 -5.015625 C 1.34375 -4.910156 1.3125 -4.785156 1.3125 -4.640625 C 1.3125 -4.472656 1.34375 -4.332031 1.40625 -4.21875 C 1.46875 -4.113281 1.554688 -4.015625 1.671875 -3.921875 C 1.796875 -3.835938 1.9375 -3.757812 2.09375 -3.6875 C 2.25 -3.625 2.421875 -3.554688 2.609375 -3.484375 C 2.867188 -3.378906 3.109375 -3.273438 3.328125 -3.171875 C 3.546875 -3.066406 3.734375 -2.9375 3.890625 -2.78125 C 4.054688 -2.632812 4.179688 -2.460938 4.265625 -2.265625 C 4.359375 -2.066406 4.40625 -1.820312 4.40625 -1.53125 C 4.40625 -1 4.207031 -0.585938 3.8125 -0.296875 C 3.425781 -0.015625 2.878906 0.125 2.171875 0.125 C 1.929688 0.125 1.707031 0.109375 1.5 0.078125 C 1.300781 0.046875 1.125 0.0078125 0.96875 -0.03125 C 0.8125 -0.0703125 0.675781 -0.117188 0.5625 -0.171875 C 0.445312 -0.222656 0.359375 -0.265625 0.296875 -0.296875 L 0.546875 -1 C 0.679688 -0.925781 0.882812 -0.84375 1.15625 -0.75 C 1.4375 -0.65625 1.773438 -0.609375 2.171875 -0.609375 Z M 2.171875 -0.609375 "/>
</symbol>
<symbol overflow="visible" id="glyph0-17">
<path style="stroke:none;" d="M 0.75 0 L 0.75 -6.09375 L 4.4375 -6.09375 L 4.4375 -5.359375 L 1.609375 -5.359375 L 1.609375 -3.53125 L 4.109375 -3.53125 L 4.109375 -2.8125 L 1.609375 -2.8125 L 1.609375 0 Z M 0.75 0 "/>
</symbol>
<symbol overflow="visible" id="glyph0-18">
<path style="stroke:none;" d="M 0.515625 -3.046875 C 0.515625 -3.566406 0.585938 -4.023438 0.734375 -4.421875 C 0.890625 -4.828125 1.101562 -5.160156 1.375 -5.421875 C 1.644531 -5.691406 1.957031 -5.894531 2.3125 -6.03125 C 2.664062 -6.164062 3.039062 -6.234375 3.4375 -6.234375 C 3.832031 -6.234375 4.203125 -6.164062 4.546875 -6.03125 C 4.898438 -5.894531 5.207031 -5.691406 5.46875 -5.421875 C 5.738281 -5.160156 5.945312 -4.828125 6.09375 -4.421875 C 6.25 -4.023438 6.328125 -3.566406 6.328125 -3.046875 C 6.328125 -2.523438 6.25 -2.066406 6.09375 -1.671875 C 5.945312 -1.273438 5.738281 -0.941406 5.46875 -0.671875 C 5.207031 -0.398438 4.898438 -0.195312 4.546875 -0.0625 C 4.203125 0.0625 3.832031 0.125 3.4375 0.125 C 3.039062 0.125 2.664062 0.0625 2.3125 -0.0625 C 1.957031 -0.195312 1.644531 -0.398438 1.375 -0.671875 C 1.101562 -0.941406 0.890625 -1.273438 0.734375 -1.671875 C 0.585938 -2.066406 0.515625 -2.523438 0.515625 -3.046875 Z M 1.40625 -3.046875 C 1.40625 -2.679688 1.453125 -2.347656 1.546875 -2.046875 C 1.640625 -1.742188 1.769531 -1.484375 1.9375 -1.265625 C 2.113281 -1.054688 2.328125 -0.894531 2.578125 -0.78125 C 2.828125 -0.664062 3.109375 -0.609375 3.421875 -0.609375 C 3.734375 -0.609375 4.007812 -0.664062 4.25 -0.78125 C 4.5 -0.894531 4.707031 -1.054688 4.875 -1.265625 C 5.050781 -1.484375 5.1875 -1.742188 5.28125 -2.046875 C 5.375 -2.347656 5.421875 -2.679688 5.421875 -3.046875 C 5.421875 -3.421875 5.375 -3.757812 5.28125 -4.0625 C 5.1875 -4.363281 5.050781 -4.617188 4.875 -4.828125 C 4.707031 -5.035156 4.5 -5.195312 4.25 -5.3125 C 4.007812 -5.425781 3.734375 -5.484375 3.421875 -5.484375 C 3.109375 -5.484375 2.828125 -5.425781 2.578125 -5.3125 C 2.328125 -5.195312 2.113281 -5.035156 1.9375 -4.828125 C 1.769531 -4.617188 1.640625 -4.363281 1.546875 -4.0625 C 1.453125 -3.757812 1.40625 -3.421875 1.40625 -3.046875 Z M 1.40625 -3.046875 "/>
</symbol>
<symbol overflow="visible" id="glyph0-19">
<path style="stroke:none;" d="M 4.828125 0 C 4.734375 -0.257812 4.640625 -0.515625 4.546875 -0.765625 C 4.460938 -1.023438 4.375 -1.289062 4.28125 -1.5625 L 1.515625 -1.5625 L 0.953125 0 L 0.078125 0 C 0.304688 -0.644531 0.519531 -1.238281 0.71875 -1.78125 C 0.925781 -2.332031 1.128906 -2.851562 1.328125 -3.34375 C 1.523438 -3.84375 1.71875 -4.316406 1.90625 -4.765625 C 2.101562 -5.210938 2.3125 -5.65625 2.53125 -6.09375 L 3.3125 -6.09375 C 3.519531 -5.65625 3.71875 -5.210938 3.90625 -4.765625 C 4.101562 -4.316406 4.300781 -3.84375 4.5 -3.34375 C 4.695312 -2.851562 4.894531 -2.332031 5.09375 -1.78125 C 5.300781 -1.238281 5.523438 -0.644531 5.765625 0 Z M 4.03125 -2.265625 C 3.84375 -2.773438 3.65625 -3.265625 3.46875 -3.734375 C 3.28125 -4.210938 3.085938 -4.675781 2.890625 -5.125 C 2.691406 -4.675781 2.5 -4.210938 2.3125 -3.734375 C 2.125 -3.265625 1.941406 -2.773438 1.765625 -2.265625 Z M 4.03125 -2.265625 "/>
</symbol>
<symbol overflow="visible" id="glyph0-20">
<path style="stroke:none;" d="M 3.03125 0.125 C 2.625 0.125 2.273438 0.0664062 1.984375 -0.046875 C 1.691406 -0.171875 1.453125 -0.335938 1.265625 -0.546875 C 1.078125 -0.765625 0.9375 -1.019531 0.84375 -1.3125 C 0.757812 -1.613281 0.71875 -1.929688 0.71875 -2.265625 L 0.71875 -6.09375 L 1.5625 -6.09375 L 1.5625 -2.359375 C 1.5625 -1.753906 1.695312 -1.3125 1.96875 -1.03125 C 2.238281 -0.757812 2.59375 -0.625 3.03125 -0.625 C 3.25 -0.625 3.445312 -0.65625 3.625 -0.71875 C 3.800781 -0.789062 3.953125 -0.894531 4.078125 -1.03125 C 4.210938 -1.175781 4.3125 -1.359375 4.375 -1.578125 C 4.445312 -1.796875 4.484375 -2.054688 4.484375 -2.359375 L 4.484375 -6.09375 L 5.34375 -6.09375 L 5.34375 -2.265625 C 5.34375 -1.929688 5.296875 -1.613281 5.203125 -1.3125 C 5.109375 -1.019531 4.96875 -0.765625 4.78125 -0.546875 C 4.59375 -0.335938 4.351562 -0.171875 4.0625 -0.046875 C 3.769531 0.0664062 3.425781 0.125 3.03125 0.125 Z M 3.03125 0.125 "/>
</symbol>
<symbol overflow="visible" id="glyph0-21">
<path style="stroke:none;" d="M 3.6875 -1.96875 C 3.6875 -1.664062 3.65625 -1.390625 3.59375 -1.140625 C 3.53125 -0.890625 3.421875 -0.664062 3.265625 -0.46875 C 3.109375 -0.28125 2.898438 -0.132812 2.640625 -0.03125 C 2.378906 0.0703125 2.050781 0.125 1.65625 0.125 C 1.457031 0.125 1.273438 0.109375 1.109375 0.078125 C 0.941406 0.046875 0.789062 0.0078125 0.65625 -0.03125 C 0.519531 -0.0820312 0.398438 -0.132812 0.296875 -0.1875 C 0.203125 -0.25 0.128906 -0.304688 0.078125 -0.359375 L 0.40625 -1.03125 C 0.53125 -0.945312 0.6875 -0.851562 0.875 -0.75 C 1.070312 -0.65625 1.320312 -0.609375 1.625 -0.609375 C 2.039062 -0.609375 2.34375 -0.71875 2.53125 -0.9375 C 2.726562 -1.15625 2.828125 -1.523438 2.828125 -2.046875 L 2.828125 -6.09375 L 3.6875 -6.09375 Z M 3.6875 -1.96875 "/>
</symbol>
<symbol overflow="visible" id="glyph0-22">
<path style="stroke:none;" d="M 2.375 -6.15625 C 3.226562 -6.15625 3.882812 -5.992188 4.34375 -5.671875 C 4.8125 -5.347656 5.046875 -4.863281 5.046875 -4.21875 C 5.046875 -3.863281 4.976562 -3.5625 4.84375 -3.3125 C 4.71875 -3.0625 4.535156 -2.859375 4.296875 -2.703125 C 4.066406 -2.546875 3.78125 -2.429688 3.4375 -2.359375 C 3.09375 -2.296875 2.707031 -2.265625 2.28125 -2.265625 L 1.609375 -2.265625 L 1.609375 0 L 0.75 0 L 0.75 -6.015625 C 1 -6.066406 1.269531 -6.101562 1.5625 -6.125 C 1.851562 -6.144531 2.125 -6.15625 2.375 -6.15625 Z M 2.453125 -5.40625 C 2.085938 -5.40625 1.804688 -5.398438 1.609375 -5.390625 L 1.609375 -2.984375 L 2.25 -2.984375 C 2.539062 -2.984375 2.800781 -3.003906 3.03125 -3.046875 C 3.269531 -3.085938 3.46875 -3.148438 3.625 -3.234375 C 3.789062 -3.328125 3.914062 -3.453125 4 -3.609375 C 4.09375 -3.773438 4.140625 -3.976562 4.140625 -4.21875 C 4.140625 -4.457031 4.09375 -4.648438 4 -4.796875 C 3.914062 -4.953125 3.796875 -5.070312 3.640625 -5.15625 C 3.484375 -5.25 3.300781 -5.3125 3.09375 -5.34375 C 2.882812 -5.382812 2.671875 -5.40625 2.453125 -5.40625 Z M 2.453125 -5.40625 "/>
</symbol>
<symbol overflow="visible" id="glyph0-23">
<path style="stroke:none;" d="M 0.4375 -3.046875 C 0.4375 -4.066406 0.613281 -4.851562 0.96875 -5.40625 C 1.332031 -5.957031 1.835938 -6.234375 2.484375 -6.234375 C 3.117188 -6.234375 3.613281 -5.957031 3.96875 -5.40625 C 4.332031 -4.851562 4.515625 -4.066406 4.515625 -3.046875 C 4.515625 -2.023438 4.332031 -1.238281 3.96875 -0.6875 C 3.613281 -0.144531 3.117188 0.125 2.484375 0.125 C 1.835938 0.125 1.332031 -0.144531 0.96875 -0.6875 C 0.613281 -1.238281 0.4375 -2.023438 0.4375 -3.046875 Z M 3.65625 -3.046875 C 3.65625 -3.378906 3.632812 -3.695312 3.59375 -4 C 3.5625 -4.300781 3.5 -4.5625 3.40625 -4.78125 C 3.3125 -5.007812 3.1875 -5.1875 3.03125 -5.3125 C 2.882812 -5.445312 2.703125 -5.515625 2.484375 -5.515625 C 2.253906 -5.515625 2.0625 -5.445312 1.90625 -5.3125 C 1.757812 -5.1875 1.640625 -5.007812 1.546875 -4.78125 C 1.460938 -4.5625 1.398438 -4.300781 1.359375 -4 C 1.316406 -3.695312 1.296875 -3.378906 1.296875 -3.046875 C 1.296875 -2.710938 1.316406 -2.394531 1.359375 -2.09375 C 1.398438 -1.800781 1.460938 -1.539062 1.546875 -1.3125 C 1.640625 -1.09375 1.757812 -0.914062 1.90625 -0.78125 C 2.0625 -0.65625 2.253906 -0.59375 2.484375 -0.59375 C 2.703125 -0.59375 2.882812 -0.65625 3.03125 -0.78125 C 3.1875 -0.914062 3.3125 -1.09375 3.40625 -1.3125 C 3.5 -1.539062 3.5625 -1.800781 3.59375 -2.09375 C 3.632812 -2.394531 3.65625 -2.710938 3.65625 -3.046875 Z M 3.65625 -3.046875 "/>
</symbol>
<symbol overflow="visible" id="glyph0-24">
<path style="stroke:none;" d="M 1.75 -3.75 C 2.632812 -3.707031 3.28125 -3.507812 3.6875 -3.15625 C 4.101562 -2.8125 4.3125 -2.335938 4.3125 -1.734375 C 4.3125 -1.460938 4.265625 -1.210938 4.171875 -0.984375 C 4.085938 -0.753906 3.953125 -0.554688 3.765625 -0.390625 C 3.585938 -0.234375 3.351562 -0.109375 3.0625 -0.015625 C 2.78125 0.078125 2.445312 0.125 2.0625 0.125 C 1.914062 0.125 1.757812 0.113281 1.59375 0.09375 C 1.4375 0.0703125 1.289062 0.0390625 1.15625 0 C 1.019531 -0.03125 0.898438 -0.0625 0.796875 -0.09375 C 0.691406 -0.132812 0.617188 -0.164062 0.578125 -0.1875 L 0.734375 -0.890625 C 0.828125 -0.847656 0.988281 -0.785156 1.21875 -0.703125 C 1.445312 -0.628906 1.722656 -0.59375 2.046875 -0.59375 C 2.316406 -0.59375 2.539062 -0.625 2.71875 -0.6875 C 2.894531 -0.75 3.035156 -0.828125 3.140625 -0.921875 C 3.253906 -1.023438 3.335938 -1.140625 3.390625 -1.265625 C 3.441406 -1.398438 3.46875 -1.539062 3.46875 -1.6875 C 3.46875 -1.90625 3.425781 -2.101562 3.34375 -2.28125 C 3.269531 -2.457031 3.132812 -2.601562 2.9375 -2.71875 C 2.75 -2.832031 2.492188 -2.921875 2.171875 -2.984375 C 1.847656 -3.046875 1.441406 -3.078125 0.953125 -3.078125 C 0.984375 -3.367188 1.007812 -3.640625 1.03125 -3.890625 C 1.050781 -4.140625 1.070312 -4.382812 1.09375 -4.625 C 1.113281 -4.863281 1.128906 -5.101562 1.140625 -5.34375 C 1.148438 -5.582031 1.160156 -5.832031 1.171875 -6.09375 L 4.109375 -6.09375 L 4.109375 -5.40625 L 1.875 -5.40625 C 1.875 -5.3125 1.867188 -5.191406 1.859375 -5.046875 C 1.847656 -4.898438 1.832031 -4.742188 1.8125 -4.578125 C 1.800781 -4.421875 1.789062 -4.265625 1.78125 -4.109375 C 1.769531 -3.953125 1.757812 -3.832031 1.75 -3.75 Z M 1.75 -3.75 "/>
</symbol>
<symbol overflow="visible" id="glyph0-25">
<path style="stroke:none;" d="M 0.8125 -4.84375 C 1.144531 -4.96875 1.46875 -5.128906 1.78125 -5.328125 C 2.101562 -5.535156 2.398438 -5.789062 2.671875 -6.09375 L 3.25 -6.09375 L 3.25 0 L 2.421875 0 L 2.421875 -4.96875 C 2.359375 -4.894531 2.273438 -4.820312 2.171875 -4.75 C 2.066406 -4.6875 1.953125 -4.617188 1.828125 -4.546875 C 1.710938 -4.484375 1.585938 -4.421875 1.453125 -4.359375 C 1.328125 -4.304688 1.203125 -4.257812 1.078125 -4.21875 Z M 0.8125 -4.84375 "/>
</symbol>
<symbol overflow="visible" id="glyph1-0">
<path style="stroke:none;" d="M 0.546875 0 L 0.546875 -8.25 L 4.953125 -8.25 L 4.953125 0 Z M 4.40625 -0.546875 L 4.40625 -7.703125 L 1.09375 -7.703125 L 1.09375 -0.546875 Z M 4.40625 -0.546875 "/>
</symbol>
<symbol overflow="visible" id="glyph1-1">
<path style="stroke:none;" d="M 6.171875 0 C 6.003906 -0.269531 5.816406 -0.570312 5.609375 -0.90625 C 5.398438 -1.25 5.175781 -1.601562 4.9375 -1.96875 C 4.695312 -2.332031 4.445312 -2.695312 4.1875 -3.0625 C 3.925781 -3.4375 3.664062 -3.796875 3.40625 -4.140625 C 3.15625 -4.492188 2.90625 -4.820312 2.65625 -5.125 C 2.414062 -5.4375 2.191406 -5.710938 1.984375 -5.953125 L 1.984375 0 L 0.953125 0 L 0.953125 -7.625 L 1.796875 -7.625 C 2.140625 -7.257812 2.503906 -6.832031 2.890625 -6.34375 C 3.285156 -5.851562 3.675781 -5.347656 4.0625 -4.828125 C 4.445312 -4.316406 4.8125 -3.8125 5.15625 -3.3125 C 5.5 -2.8125 5.785156 -2.367188 6.015625 -1.984375 L 6.015625 -7.625 L 7.0625 -7.625 L 7.0625 0 Z M 6.171875 0 "/>
</symbol>
<symbol overflow="visible" id="glyph1-2">
<path style="stroke:none;" d="M 5.4375 -0.171875 C 5.195312 -0.109375 4.882812 -0.046875 4.5 0.015625 C 4.113281 0.0859375 3.671875 0.125 3.171875 0.125 C 2.734375 0.125 2.363281 0.0625 2.0625 -0.0625 C 1.757812 -0.195312 1.515625 -0.378906 1.328125 -0.609375 C 1.148438 -0.847656 1.019531 -1.125 0.9375 -1.4375 C 0.851562 -1.757812 0.8125 -2.117188 0.8125 -2.515625 L 0.8125 -5.71875 L 1.84375 -5.71875 L 1.84375 -2.734375 C 1.84375 -2.035156 1.953125 -1.535156 2.171875 -1.234375 C 2.390625 -0.929688 2.757812 -0.78125 3.28125 -0.78125 C 3.382812 -0.78125 3.492188 -0.78125 3.609375 -0.78125 C 3.734375 -0.789062 3.847656 -0.800781 3.953125 -0.8125 C 4.054688 -0.832031 4.148438 -0.847656 4.234375 -0.859375 C 4.316406 -0.867188 4.375 -0.878906 4.40625 -0.890625 L 4.40625 -5.71875 L 5.4375 -5.71875 Z M 5.4375 -0.171875 "/>
</symbol>
<symbol overflow="visible" id="glyph1-3">
<path style="stroke:none;" d="M 0.875 -5.5625 C 1.113281 -5.613281 1.425781 -5.671875 1.8125 -5.734375 C 2.195312 -5.804688 2.640625 -5.84375 3.140625 -5.84375 C 3.515625 -5.84375 3.820312 -5.789062 4.0625 -5.6875 C 4.3125 -5.59375 4.523438 -5.453125 4.703125 -5.265625 C 4.753906 -5.296875 4.832031 -5.34375 4.9375 -5.40625 C 5.050781 -5.476562 5.1875 -5.546875 5.34375 -5.609375 C 5.507812 -5.671875 5.691406 -5.722656 5.890625 -5.765625 C 6.085938 -5.816406 6.296875 -5.84375 6.515625 -5.84375 C 6.960938 -5.84375 7.320312 -5.773438 7.59375 -5.640625 C 7.875 -5.515625 8.09375 -5.332031 8.25 -5.09375 C 8.40625 -4.863281 8.507812 -4.585938 8.5625 -4.265625 C 8.625 -3.941406 8.65625 -3.59375 8.65625 -3.21875 L 8.65625 0 L 7.640625 0 L 7.640625 -2.984375 C 7.640625 -3.328125 7.617188 -3.617188 7.578125 -3.859375 C 7.546875 -4.097656 7.484375 -4.296875 7.390625 -4.453125 C 7.304688 -4.617188 7.179688 -4.738281 7.015625 -4.8125 C 6.859375 -4.894531 6.65625 -4.9375 6.40625 -4.9375 C 6.0625 -4.9375 5.773438 -4.890625 5.546875 -4.796875 C 5.328125 -4.703125 5.179688 -4.617188 5.109375 -4.546875 C 5.160156 -4.359375 5.203125 -4.148438 5.234375 -3.921875 C 5.265625 -3.703125 5.28125 -3.46875 5.28125 -3.21875 L 5.28125 0 L 4.25 0 L 4.25 -2.984375 C 4.25 -3.328125 4.226562 -3.617188 4.1875 -3.859375 C 4.15625 -4.097656 4.09375 -4.296875 4 -4.453125 C 3.914062 -4.617188 3.796875 -4.738281 3.640625 -4.8125 C 3.484375 -4.894531 3.28125 -4.9375 3.03125 -4.9375 C 2.925781 -4.9375 2.816406 -4.929688 2.703125 -4.921875 C 2.585938 -4.921875 2.476562 -4.914062 2.375 -4.90625 C 2.269531 -4.894531 2.171875 -4.878906 2.078125 -4.859375 C 1.992188 -4.847656 1.9375 -4.835938 1.90625 -4.828125 L 1.90625 0 L 0.875 0 Z M 0.875 -5.5625 "/>
</symbol>
<symbol overflow="visible" id="glyph1-4">
<path style="stroke:none;" d="M 1.90625 -5.46875 C 2.03125 -5.550781 2.21875 -5.632812 2.46875 -5.71875 C 2.71875 -5.8125 3.007812 -5.859375 3.34375 -5.859375 C 3.75 -5.859375 4.113281 -5.78125 4.4375 -5.625 C 4.757812 -5.476562 5.03125 -5.273438 5.25 -5.015625 C 5.46875 -4.753906 5.632812 -4.4375 5.75 -4.0625 C 5.863281 -3.695312 5.921875 -3.296875 5.921875 -2.859375 C 5.921875 -2.398438 5.851562 -1.984375 5.71875 -1.609375 C 5.582031 -1.242188 5.390625 -0.929688 5.140625 -0.671875 C 4.890625 -0.410156 4.585938 -0.210938 4.234375 -0.078125 C 3.878906 0.0546875 3.484375 0.125 3.046875 0.125 C 2.566406 0.125 2.144531 0.09375 1.78125 0.03125 C 1.414062 -0.03125 1.113281 -0.0976562 0.875 -0.171875 L 0.875 -8.359375 L 1.90625 -8.53125 Z M 1.90625 -0.890625 C 2.007812 -0.859375 2.15625 -0.828125 2.34375 -0.796875 C 2.53125 -0.773438 2.757812 -0.765625 3.03125 -0.765625 C 3.582031 -0.765625 4.019531 -0.945312 4.34375 -1.3125 C 4.675781 -1.675781 4.84375 -2.191406 4.84375 -2.859375 C 4.84375 -3.148438 4.8125 -3.421875 4.75 -3.671875 C 4.695312 -3.929688 4.601562 -4.15625 4.46875 -4.34375 C 4.34375 -4.53125 4.175781 -4.675781 3.96875 -4.78125 C 3.757812 -4.894531 3.507812 -4.953125 3.21875 -4.953125 C 2.9375 -4.953125 2.675781 -4.898438 2.4375 -4.796875 C 2.207031 -4.703125 2.03125 -4.609375 1.90625 -4.515625 Z M 1.90625 -0.890625 "/>
</symbol>
<symbol overflow="visible" id="glyph1-5">
<path style="stroke:none;" d="M 0.5625 -2.84375 C 0.5625 -3.351562 0.632812 -3.796875 0.78125 -4.171875 C 0.925781 -4.546875 1.117188 -4.859375 1.359375 -5.109375 C 1.609375 -5.359375 1.890625 -5.546875 2.203125 -5.671875 C 2.515625 -5.796875 2.835938 -5.859375 3.171875 -5.859375 C 3.941406 -5.859375 4.53125 -5.617188 4.9375 -5.140625 C 5.351562 -4.660156 5.5625 -3.929688 5.5625 -2.953125 C 5.5625 -2.898438 5.5625 -2.835938 5.5625 -2.765625 C 5.5625 -2.703125 5.554688 -2.640625 5.546875 -2.578125 L 1.625 -2.578125 C 1.664062 -1.984375 1.835938 -1.53125 2.140625 -1.21875 C 2.441406 -0.914062 2.910156 -0.765625 3.546875 -0.765625 C 3.910156 -0.765625 4.210938 -0.796875 4.453125 -0.859375 C 4.703125 -0.921875 4.890625 -0.984375 5.015625 -1.046875 L 5.15625 -0.1875 C 5.03125 -0.125 4.8125 -0.0546875 4.5 0.015625 C 4.1875 0.0859375 3.832031 0.125 3.4375 0.125 C 2.9375 0.125 2.503906 0.0507812 2.140625 -0.09375 C 1.785156 -0.238281 1.488281 -0.441406 1.25 -0.703125 C 1.019531 -0.972656 0.847656 -1.289062 0.734375 -1.65625 C 0.617188 -2.019531 0.5625 -2.414062 0.5625 -2.84375 Z M 4.484375 -3.40625 C 4.492188 -3.875 4.378906 -4.253906 4.140625 -4.546875 C 3.898438 -4.847656 3.570312 -5 3.15625 -5 C 2.925781 -5 2.71875 -4.953125 2.53125 -4.859375 C 2.351562 -4.765625 2.203125 -4.644531 2.078125 -4.5 C 1.953125 -4.351562 1.851562 -4.179688 1.78125 -3.984375 C 1.71875 -3.796875 1.675781 -3.601562 1.65625 -3.40625 Z M 4.484375 -3.40625 "/>
</symbol>
<symbol overflow="visible" id="glyph1-6">
<path style="stroke:none;" d="M 2.984375 -5.84375 C 3.078125 -5.84375 3.179688 -5.835938 3.296875 -5.828125 C 3.410156 -5.816406 3.519531 -5.800781 3.625 -5.78125 C 3.738281 -5.757812 3.835938 -5.738281 3.921875 -5.71875 C 4.015625 -5.707031 4.085938 -5.691406 4.140625 -5.671875 L 3.953125 -4.78125 C 3.878906 -4.8125 3.75 -4.847656 3.5625 -4.890625 C 3.375 -4.929688 3.132812 -4.953125 2.84375 -4.953125 C 2.644531 -4.953125 2.453125 -4.929688 2.265625 -4.890625 C 2.078125 -4.847656 1.957031 -4.820312 1.90625 -4.8125 L 1.90625 0 L 0.875 0 L 0.875 -5.484375 C 1.125 -5.566406 1.425781 -5.644531 1.78125 -5.71875 C 2.144531 -5.800781 2.546875 -5.84375 2.984375 -5.84375 Z M 2.984375 -5.84375 "/>
</symbol>
<symbol overflow="visible" id="glyph1-7">
<path style="stroke:none;" d=""/>
</symbol>
<symbol overflow="visible" id="glyph1-8">
<path style="stroke:none;" d="M 5.921875 -2.859375 C 5.921875 -2.398438 5.851562 -1.988281 5.71875 -1.625 C 5.59375 -1.257812 5.410156 -0.941406 5.171875 -0.671875 C 4.929688 -0.410156 4.644531 -0.207031 4.3125 -0.0625 C 3.988281 0.0703125 3.632812 0.140625 3.25 0.140625 C 2.851562 0.140625 2.488281 0.0703125 2.15625 -0.0625 C 1.832031 -0.207031 1.550781 -0.410156 1.3125 -0.671875 C 1.070312 -0.941406 0.882812 -1.257812 0.75 -1.625 C 0.625 -1.988281 0.5625 -2.398438 0.5625 -2.859375 C 0.5625 -3.304688 0.625 -3.710938 0.75 -4.078125 C 0.882812 -4.453125 1.070312 -4.769531 1.3125 -5.03125 C 1.550781 -5.300781 1.832031 -5.503906 2.15625 -5.640625 C 2.488281 -5.785156 2.851562 -5.859375 3.25 -5.859375 C 3.632812 -5.859375 3.988281 -5.785156 4.3125 -5.640625 C 4.644531 -5.503906 4.929688 -5.300781 5.171875 -5.03125 C 5.410156 -4.769531 5.59375 -4.453125 5.71875 -4.078125 C 5.851562 -3.710938 5.921875 -3.304688 5.921875 -2.859375 Z M 4.859375 -2.859375 C 4.859375 -3.503906 4.710938 -4.015625 4.421875 -4.390625 C 4.140625 -4.773438 3.75 -4.96875 3.25 -4.96875 C 2.75 -4.96875 2.351562 -4.773438 2.0625 -4.390625 C 1.769531 -4.015625 1.625 -3.503906 1.625 -2.859375 C 1.625 -2.210938 1.769531 -1.703125 2.0625 -1.328125 C 2.351562 -0.953125 2.75 -0.765625 3.25 -0.765625 C 3.75 -0.765625 4.140625 -0.953125 4.421875 -1.328125 C 4.710938 -1.703125 4.859375 -2.210938 4.859375 -2.859375 Z M 4.859375 -2.859375 "/>
</symbol>
<symbol overflow="visible" id="glyph1-9">
<path style="stroke:none;" d="M 3.109375 -8.53125 C 3.410156 -8.53125 3.671875 -8.507812 3.890625 -8.46875 C 4.109375 -8.425781 4.257812 -8.382812 4.34375 -8.34375 L 4.15625 -7.46875 C 4.070312 -7.507812 3.945312 -7.550781 3.78125 -7.59375 C 3.625 -7.632812 3.425781 -7.65625 3.1875 -7.65625 C 2.707031 -7.65625 2.375 -7.523438 2.1875 -7.265625 C 2 -7.003906 1.90625 -6.65625 1.90625 -6.21875 L 1.90625 -5.71875 L 4.109375 -5.71875 L 4.109375 -4.859375 L 1.90625 -4.859375 L 1.90625 0 L 0.875 0 L 0.875 -6.234375 C 0.875 -6.972656 1.050781 -7.539062 1.40625 -7.9375 C 1.769531 -8.332031 2.335938 -8.53125 3.109375 -8.53125 Z M 3.109375 -8.53125 "/>
</symbol>
<symbol overflow="visible" id="glyph1-10">
<path style="stroke:none;" d="M 1.90625 0 L 0.875 0 L 0.875 -5.71875 L 1.90625 -5.71875 Z M 1.390625 -6.75 C 1.203125 -6.75 1.039062 -6.804688 0.90625 -6.921875 C 0.78125 -7.046875 0.71875 -7.210938 0.71875 -7.421875 C 0.71875 -7.628906 0.78125 -7.789062 0.90625 -7.90625 C 1.039062 -8.03125 1.203125 -8.09375 1.390625 -8.09375 C 1.566406 -8.09375 1.71875 -8.03125 1.84375 -7.90625 C 1.976562 -7.789062 2.046875 -7.628906 2.046875 -7.421875 C 2.046875 -7.210938 1.976562 -7.046875 1.84375 -6.921875 C 1.71875 -6.804688 1.566406 -6.75 1.390625 -6.75 Z M 1.390625 -6.75 "/>
</symbol>
<symbol overflow="visible" id="glyph1-11">
<path style="stroke:none;" d="M 2.21875 -0.734375 C 2.632812 -0.734375 2.941406 -0.785156 3.140625 -0.890625 C 3.335938 -1.003906 3.4375 -1.1875 3.4375 -1.4375 C 3.4375 -1.675781 3.335938 -1.867188 3.140625 -2.015625 C 2.941406 -2.171875 2.617188 -2.335938 2.171875 -2.515625 C 1.953125 -2.609375 1.738281 -2.695312 1.53125 -2.78125 C 1.332031 -2.875 1.160156 -2.984375 1.015625 -3.109375 C 0.867188 -3.234375 0.75 -3.382812 0.65625 -3.5625 C 0.570312 -3.738281 0.53125 -3.957031 0.53125 -4.21875 C 0.53125 -4.71875 0.71875 -5.113281 1.09375 -5.40625 C 1.46875 -5.707031 1.976562 -5.859375 2.625 -5.859375 C 2.78125 -5.859375 2.9375 -5.847656 3.09375 -5.828125 C 3.257812 -5.816406 3.410156 -5.796875 3.546875 -5.765625 C 3.691406 -5.742188 3.816406 -5.71875 3.921875 -5.6875 C 4.023438 -5.65625 4.109375 -5.628906 4.171875 -5.609375 L 3.984375 -4.734375 C 3.867188 -4.785156 3.691406 -4.84375 3.453125 -4.90625 C 3.222656 -4.96875 2.945312 -5 2.625 -5 C 2.332031 -5 2.078125 -4.941406 1.859375 -4.828125 C 1.648438 -4.710938 1.546875 -4.535156 1.546875 -4.296875 C 1.546875 -4.171875 1.566406 -4.0625 1.609375 -3.96875 C 1.660156 -3.875 1.734375 -3.785156 1.828125 -3.703125 C 1.929688 -3.628906 2.054688 -3.5625 2.203125 -3.5 C 2.359375 -3.4375 2.535156 -3.363281 2.734375 -3.28125 C 3.003906 -3.1875 3.242188 -3.085938 3.453125 -2.984375 C 3.671875 -2.890625 3.851562 -2.773438 4 -2.640625 C 4.15625 -2.503906 4.273438 -2.34375 4.359375 -2.15625 C 4.441406 -1.96875 4.484375 -1.738281 4.484375 -1.46875 C 4.484375 -0.945312 4.285156 -0.550781 3.890625 -0.28125 C 3.492188 -0.0078125 2.9375 0.125 2.21875 0.125 C 1.707031 0.125 1.304688 0.0820312 1.015625 0 C 0.734375 -0.0820312 0.539062 -0.144531 0.4375 -0.1875 L 0.625 -1.0625 C 0.738281 -1.019531 0.925781 -0.953125 1.1875 -0.859375 C 1.445312 -0.773438 1.789062 -0.734375 2.21875 -0.734375 Z M 2.21875 -0.734375 "/>
</symbol>
<symbol overflow="visible" id="glyph1-12">
<path style="stroke:none;" d="M 2.59375 0.109375 C 1.96875 0.0976562 1.519531 -0.0351562 1.25 -0.296875 C 0.988281 -0.554688 0.859375 -0.957031 0.859375 -1.5 L 0.859375 -8.359375 L 1.875 -8.53125 L 1.875 -1.65625 C 1.875 -1.488281 1.890625 -1.347656 1.921875 -1.234375 C 1.953125 -1.128906 2 -1.039062 2.0625 -0.96875 C 2.132812 -0.90625 2.222656 -0.859375 2.328125 -0.828125 C 2.441406 -0.796875 2.578125 -0.769531 2.734375 -0.75 Z M 2.59375 0.109375 "/>
</symbol>
<symbol overflow="visible" id="glyph1-13">
<path style="stroke:none;" d="M 2.8125 -0.734375 C 3.050781 -0.734375 3.265625 -0.738281 3.453125 -0.75 C 3.640625 -0.757812 3.796875 -0.78125 3.921875 -0.8125 L 3.921875 -2.515625 C 3.847656 -2.554688 3.726562 -2.585938 3.5625 -2.609375 C 3.40625 -2.640625 3.207031 -2.65625 2.96875 -2.65625 C 2.8125 -2.65625 2.644531 -2.640625 2.46875 -2.609375 C 2.300781 -2.585938 2.144531 -2.539062 2 -2.46875 C 1.863281 -2.40625 1.742188 -2.3125 1.640625 -2.1875 C 1.546875 -2.070312 1.5 -1.914062 1.5 -1.71875 C 1.5 -1.351562 1.617188 -1.097656 1.859375 -0.953125 C 2.097656 -0.804688 2.414062 -0.734375 2.8125 -0.734375 Z M 2.734375 -5.859375 C 3.140625 -5.859375 3.484375 -5.804688 3.765625 -5.703125 C 4.046875 -5.597656 4.269531 -5.445312 4.4375 -5.25 C 4.613281 -5.0625 4.738281 -4.832031 4.8125 -4.5625 C 4.882812 -4.289062 4.921875 -3.992188 4.921875 -3.671875 L 4.921875 -0.09375 C 4.835938 -0.0820312 4.71875 -0.0625 4.5625 -0.03125 C 4.40625 -0.0078125 4.226562 0.0078125 4.03125 0.03125 C 3.832031 0.0507812 3.613281 0.0703125 3.375 0.09375 C 3.144531 0.113281 2.914062 0.125 2.6875 0.125 C 2.375 0.125 2.078125 0.0859375 1.796875 0.015625 C 1.523438 -0.046875 1.289062 -0.144531 1.09375 -0.28125 C 0.894531 -0.425781 0.738281 -0.613281 0.625 -0.84375 C 0.519531 -1.082031 0.46875 -1.367188 0.46875 -1.703125 C 0.46875 -2.015625 0.53125 -2.285156 0.65625 -2.515625 C 0.789062 -2.742188 0.96875 -2.925781 1.1875 -3.0625 C 1.40625 -3.207031 1.660156 -3.3125 1.953125 -3.375 C 2.242188 -3.4375 2.550781 -3.46875 2.875 -3.46875 C 2.976562 -3.46875 3.082031 -3.460938 3.1875 -3.453125 C 3.300781 -3.441406 3.40625 -3.425781 3.5 -3.40625 C 3.601562 -3.394531 3.691406 -3.378906 3.765625 -3.359375 C 3.847656 -3.347656 3.898438 -3.335938 3.921875 -3.328125 L 3.921875 -3.625 C 3.921875 -3.789062 3.898438 -3.953125 3.859375 -4.109375 C 3.828125 -4.273438 3.765625 -4.421875 3.671875 -4.546875 C 3.578125 -4.679688 3.445312 -4.785156 3.28125 -4.859375 C 3.113281 -4.941406 2.898438 -4.984375 2.640625 -4.984375 C 2.304688 -4.984375 2.007812 -4.957031 1.75 -4.90625 C 1.5 -4.863281 1.3125 -4.816406 1.1875 -4.765625 L 1.0625 -5.609375 C 1.195312 -5.671875 1.414062 -5.726562 1.71875 -5.78125 C 2.03125 -5.832031 2.367188 -5.859375 2.734375 -5.859375 Z M 2.734375 -5.859375 "/>
</symbol>
<symbol overflow="visible" id="glyph1-14">
<path style="stroke:none;" d="M 1.84375 -5.71875 L 4 -5.71875 L 4 -4.859375 L 1.84375 -4.859375 L 1.84375 -2.21875 C 1.84375 -1.9375 1.863281 -1.703125 1.90625 -1.515625 C 1.945312 -1.328125 2.007812 -1.175781 2.09375 -1.0625 C 2.1875 -0.957031 2.296875 -0.882812 2.421875 -0.84375 C 2.554688 -0.800781 2.710938 -0.78125 2.890625 -0.78125 C 3.203125 -0.78125 3.453125 -0.8125 3.640625 -0.875 C 3.828125 -0.945312 3.957031 -1 4.03125 -1.03125 L 4.21875 -0.1875 C 4.113281 -0.132812 3.929688 -0.0703125 3.671875 0 C 3.421875 0.0820312 3.132812 0.125 2.8125 0.125 C 2.414062 0.125 2.09375 0.078125 1.84375 -0.015625 C 1.59375 -0.117188 1.390625 -0.269531 1.234375 -0.46875 C 1.078125 -0.664062 0.96875 -0.910156 0.90625 -1.203125 C 0.84375 -1.492188 0.8125 -1.832031 0.8125 -2.21875 L 0.8125 -7.3125 L 1.84375 -7.484375 Z M 1.84375 -5.71875 "/>
</symbol>
</g>
<clipPath id="clip1">
  <path d="M 130 5.480469 L 132 5.480469 L 132 326.851562 L 130 326.851562 Z M 130 5.480469 "/>
</clipPath>
<clipPath id="clip2">
  <path d="M 274 5.480469 L 275 5.480469 L 275 326.851562 L 274 326.851562 Z M 274 5.480469 "/>
</clipPath>
<clipPath id="clip3">
  <path d="M 417 5.480469 L 419 5.480469 L 419 326.851562 L 417 326.851562 Z M 417 5.480469 "/>
</clipPath>
<clipPath id="clip4">
  <path d="M 38.152344 318 L 498.523438 318 L 498.523438 320 L 38.152344 320 Z M 38.152344 318 "/>
</clipPath>
<clipPath id="clip5">
  <path d="M 38.152344 305 L 498.523438 305 L 498.523438 307 L 38.152344 307 Z M 38.152344 305 "/>
</clipPath>
<clipPath id="clip6">
  <path d="M 38.152344 291 L 498.523438 291 L 498.523438 293 L 38.152344 293 Z M 38.152344 291 "/>
</clipPath>
<clipPath id="clip7">
  <path d="M 38.152344 278 L 498.523438 278 L 498.523438 280 L 38.152344 280 Z M 38.152344 278 "/>
</clipPath>
<clipPath id="clip8">
  <path d="M 38.152344 265 L 498.523438 265 L 498.523438 267 L 38.152344 267 Z M 38.152344 265 "/>
</clipPath>
<clipPath id="clip9">
  <path d="M 38.152344 251 L 498.523438 251 L 498.523438 254 L 38.152344 254 Z M 38.152344 251 "/>
</clipPath>
<clipPath id="clip10">
  <path d="M 38.152344 238 L 498.523438 238 L 498.523438 240 L 38.152344 240 Z M 38.152344 238 "/>
</clipPath>
<clipPath id="clip11">
  <path d="M 38.152344 225 L 498.523438 225 L 498.523438 227 L 38.152344 227 Z M 38.152344 225 "/>
</clipPath>
<clipPath id="clip12">
  <path d="M 38.152344 212 L 498.523438 212 L 498.523438 214 L 38.152344 214 Z M 38.152344 212 "/>
</clipPath>
<clipPath id="clip13">
  <path d="M 38.152344 198 L 498.523438 198 L 498.523438 200 L 38.152344 200 Z M 38.152344 198 "/>
</clipPath>
<clipPath id="clip14">
  <path d="M 38.152344 185 L 498.523438 185 L 498.523438 187 L 38.152344 187 Z M 38.152344 185 "/>
</clipPath>
<clipPath id="clip15">
  <path d="M 38.152344 172 L 498.523438 172 L 498.523438 174 L 38.152344 174 Z M 38.152344 172 "/>
</clipPath>
<clipPath id="clip16">
  <path d="M 38.152344 158 L 498.523438 158 L 498.523438 161 L 38.152344 161 Z M 38.152344 158 "/>
</clipPath>
<clipPath id="clip17">
  <path d="M 38.152344 145 L 498.523438 145 L 498.523438 147 L 38.152344 147 Z M 38.152344 145 "/>
</clipPath>
<clipPath id="clip18">
  <path d="M 38.152344 132 L 498.523438 132 L 498.523438 134 L 38.152344 134 Z M 38.152344 132 "/>
</clipPath>
<clipPath id="clip19">
  <path d="M 38.152344 119 L 498.523438 119 L 498.523438 121 L 38.152344 121 Z M 38.152344 119 "/>
</clipPath>
<clipPath id="clip20">
  <path d="M 38.152344 105 L 498.523438 105 L 498.523438 107 L 38.152344 107 Z M 38.152344 105 "/>
</clipPath>
<clipPath id="clip21">
  <path d="M 38.152344 92 L 498.523438 92 L 498.523438 94 L 38.152344 94 Z M 38.152344 92 "/>
</clipPath>
<clipPath id="clip22">
  <path d="M 38.152344 79 L 498.523438 79 L 498.523438 81 L 38.152344 81 Z M 38.152344 79 "/>
</clipPath>
<clipPath id="clip23">
  <path d="M 38.152344 66 L 498.523438 66 L 498.523438 68 L 38.152344 68 Z M 38.152344 66 "/>
</clipPath>
<clipPath id="clip24">
  <path d="M 38.152344 52 L 498.523438 52 L 498.523438 54 L 38.152344 54 Z M 38.152344 52 "/>
</clipPath>
<clipPath id="clip25">
  <path d="M 38.152344 39 L 498.523438 39 L 498.523438 41 L 38.152344 41 Z M 38.152344 39 "/>
</clipPath>
<clipPath id="clip26">
  <path d="M 38.152344 26 L 498.523438 26 L 498.523438 28 L 38.152344 28 Z M 38.152344 26 "/>
</clipPath>
<clipPath id="clip27">
  <path d="M 38.152344 12 L 498.523438 12 L 498.523438 14 L 38.152344 14 Z M 38.152344 12 "/>
</clipPath>
<clipPath id="clip28">
  <path d="M 58 5.480469 L 60 5.480469 L 60 326.851562 L 58 326.851562 Z M 58 5.480469 "/>
</clipPath>
<clipPath id="clip29">
  <path d="M 202 5.480469 L 204 5.480469 L 204 326.851562 L 202 326.851562 Z M 202 5.480469 "/>
</clipPath>
<clipPath id="clip30">
  <path d="M 345 5.480469 L 347 5.480469 L 347 326.851562 L 345 326.851562 Z M 345 5.480469 "/>
</clipPath>
<clipPath id="clip31">
  <path d="M 489 5.480469 L 491 5.480469 L 491 326.851562 L 489 326.851562 Z M 489 5.480469 "/>
</clipPath>
</defs>
<g id="surface1700">
<rect x="0" y="0" width="504" height="360" style="fill:rgb(100%,100%,100%);fill-opacity:1;stroke:none;"/>
<g clip-path="url(#clip1)" clip-rule="nonzero">
<path style="fill:none;stroke-width:0.533489;stroke-linecap:butt;stroke-linejoin:round;stroke:rgb(92.156863%,92.156863%,92.156863%);stroke-opacity:1;stroke-miterlimit:10;" d="M 130.886719 326.847656 L 130.886719 5.480469 "/>
</g>
<g clip-path="url(#clip2)" clip-rule="nonzero">
<path style="fill:none;stroke-width:0.533489;stroke-linecap:butt;stroke-linejoin:round;stroke:rgb(92.156863%,92.156863%,92.156863%);stroke-opacity:1;stroke-miterlimit:10;" d="M 274.511719 326.847656 L 274.511719 5.480469 "/>
</g>
<g clip-path="url(#clip3)" clip-rule="nonzero">
<path style="fill:none;stroke-width:0.533489;stroke-linecap:butt;stroke-linejoin:round;stroke:rgb(92.156863%,92.156863%,92.156863%);stroke-opacity:1;stroke-miterlimit:10;" d="M 418.132812 326.847656 L 418.132812 5.480469 "/>
</g>
<g clip-path="url(#clip4)" clip-rule="nonzero">
<path style="fill:none;stroke-width:1.066978;stroke-linecap:butt;stroke-linejoin:round;stroke:rgb(92.156863%,92.156863%,92.156863%);stroke-opacity:1;stroke-miterlimit:10;" d="M 38.152344 318.882812 L 498.519531 318.882812 "/>
</g>
<g clip-path="url(#clip5)" clip-rule="nonzero">
<path style="fill:none;stroke-width:1.066978;stroke-linecap:butt;stroke-linejoin:round;stroke:rgb(92.156863%,92.156863%,92.156863%);stroke-opacity:1;stroke-miterlimit:10;" d="M 38.152344 305.601562 L 498.519531 305.601562 "/>
</g>
<g clip-path="url(#clip6)" clip-rule="nonzero">
<path style="fill:none;stroke-width:1.066978;stroke-linecap:butt;stroke-linejoin:round;stroke:rgb(92.156863%,92.156863%,92.156863%);stroke-opacity:1;stroke-miterlimit:10;" d="M 38.152344 292.320312 L 498.519531 292.320312 "/>
</g>
<g clip-path="url(#clip7)" clip-rule="nonzero">
<path style="fill:none;stroke-width:1.066978;stroke-linecap:butt;stroke-linejoin:round;stroke:rgb(92.156863%,92.156863%,92.156863%);stroke-opacity:1;stroke-miterlimit:10;" d="M 38.152344 279.042969 L 498.519531 279.042969 "/>
</g>
<g clip-path="url(#clip8)" clip-rule="nonzero">
<path style="fill:none;stroke-width:1.066978;stroke-linecap:butt;stroke-linejoin:round;stroke:rgb(92.156863%,92.156863%,92.156863%);stroke-opacity:1;stroke-miterlimit:10;" d="M 38.152344 265.761719 L 498.519531 265.761719 "/>
</g>
<g clip-path="url(#clip9)" clip-rule="nonzero">
<path style="fill:none;stroke-width:1.066978;stroke-linecap:butt;stroke-linejoin:round;stroke:rgb(92.156863%,92.156863%,92.156863%);stroke-opacity:1;stroke-miterlimit:10;" d="M 38.152344 252.484375 L 498.519531 252.484375 "/>
</g>
<g clip-path="url(#clip10)" clip-rule="nonzero">
<path style="fill:none;stroke-width:1.066978;stroke-linecap:butt;stroke-linejoin:round;stroke:rgb(92.156863%,92.156863%,92.156863%);stroke-opacity:1;stroke-miterlimit:10;" d="M 38.152344 239.203125 L 498.519531 239.203125 "/>
</g>
<g clip-path="url(#clip11)" clip-rule="nonzero">
<path style="fill:none;stroke-width:1.066978;stroke-linecap:butt;stroke-linejoin:round;stroke:rgb(92.156863%,92.156863%,92.156863%);stroke-opacity:1;stroke-miterlimit:10;" d="M 38.152344 225.921875 L 498.519531 225.921875 "/>
</g>
<g clip-path="url(#clip12)" clip-rule="nonzero">
<path style="fill:none;stroke-width:1.066978;stroke-linecap:butt;stroke-linejoin:round;stroke:rgb(92.156863%,92.156863%,92.156863%);stroke-opacity:1;stroke-miterlimit:10;" d="M 38.152344 212.644531 L 498.519531 212.644531 "/>
</g>
<g clip-path="url(#clip13)" clip-rule="nonzero">
<path style="fill:none;stroke-width:1.066978;stroke-linecap:butt;stroke-linejoin:round;stroke:rgb(92.156863%,92.156863%,92.156863%);stroke-opacity:1;stroke-miterlimit:10;" d="M 38.152344 199.363281 L 498.519531 199.363281 "/>
</g>
<g clip-path="url(#clip14)" clip-rule="nonzero">
<path style="fill:none;stroke-width:1.066978;stroke-linecap:butt;stroke-linejoin:round;stroke:rgb(92.156863%,92.156863%,92.156863%);stroke-opacity:1;stroke-miterlimit:10;" d="M 38.152344 186.085938 L 498.519531 186.085938 "/>
</g>
<g clip-path="url(#clip15)" clip-rule="nonzero">
<path style="fill:none;stroke-width:1.066978;stroke-linecap:butt;stroke-linejoin:round;stroke:rgb(92.156863%,92.156863%,92.156863%);stroke-opacity:1;stroke-miterlimit:10;" d="M 38.152344 172.804688 L 498.519531 172.804688 "/>
</g>
<g clip-path="url(#clip16)" clip-rule="nonzero">
<path style="fill:none;stroke-width:1.066978;stroke-linecap:butt;stroke-linejoin:round;stroke:rgb(92.156863%,92.156863%,92.156863%);stroke-opacity:1;stroke-miterlimit:10;" d="M 38.152344 159.523438 L 498.519531 159.523438 "/>
</g>
<g clip-path="url(#clip17)" clip-rule="nonzero">
<path style="fill:none;stroke-width:1.066978;stroke-linecap:butt;stroke-linejoin:round;stroke:rgb(92.156863%,92.156863%,92.156863%);stroke-opacity:1;stroke-miterlimit:10;" d="M 38.152344 146.246094 L 498.519531 146.246094 "/>
</g>
<g clip-path="url(#clip18)" clip-rule="nonzero">
<path style="fill:none;stroke-width:1.066978;stroke-linecap:butt;stroke-linejoin:round;stroke:rgb(92.156863%,92.156863%,92.156863%);stroke-opacity:1;stroke-miterlimit:10;" d="M 38.152344 132.964844 L 498.519531 132.964844 "/>
</g>
<g clip-path="url(#clip19)" clip-rule="nonzero">
<path style="fill:none;stroke-width:1.066978;stroke-linecap:butt;stroke-linejoin:round;stroke:rgb(92.156863%,92.156863%,92.156863%);stroke-opacity:1;stroke-miterlimit:10;" d="M 38.152344 119.683594 L 498.519531 119.683594 "/>
</g>
<g clip-path="url(#clip20)" clip-rule="nonzero">
<path style="fill:none;stroke-width:1.066978;stroke-linecap:butt;stroke-linejoin:round;stroke:rgb(92.156863%,92.156863%,92.156863%);stroke-opacity:1;stroke-miterlimit:10;" d="M 38.152344 106.40625 L 498.519531 106.40625 "/>
</g>
<g clip-path="url(#clip21)" clip-rule="nonzero">
<path style="fill:none;stroke-width:1.066978;stroke-linecap:butt;stroke-linejoin:round;stroke:rgb(92.156863%,92.156863%,92.156863%);stroke-opacity:1;stroke-miterlimit:10;" d="M 38.152344 93.125 L 498.519531 93.125 "/>
</g>
<g clip-path="url(#clip22)" clip-rule="nonzero">
<path style="fill:none;stroke-width:1.066978;stroke-linecap:butt;stroke-linejoin:round;stroke:rgb(92.156863%,92.156863%,92.156863%);stroke-opacity:1;stroke-miterlimit:10;" d="M 38.152344 79.847656 L 498.519531 79.847656 "/>
</g>
<g clip-path="url(#clip23)" clip-rule="nonzero">
<path style="fill:none;stroke-width:1.066978;stroke-linecap:butt;stroke-linejoin:round;stroke:rgb(92.156863%,92.156863%,92.156863%);stroke-opacity:1;stroke-miterlimit:10;" d="M 38.152344 66.566406 L 498.519531 66.566406 "/>
</g>
<g clip-path="url(#clip24)" clip-rule="nonzero">
<path style="fill:none;stroke-width:1.066978;stroke-linecap:butt;stroke-linejoin:round;stroke:rgb(92.156863%,92.156863%,92.156863%);stroke-opacity:1;stroke-miterlimit:10;" d="M 38.152344 53.285156 L 498.519531 53.285156 "/>
</g>
<g clip-path="url(#clip25)" clip-rule="nonzero">
<path style="fill:none;stroke-width:1.066978;stroke-linecap:butt;stroke-linejoin:round;stroke:rgb(92.156863%,92.156863%,92.156863%);stroke-opacity:1;stroke-miterlimit:10;" d="M 38.152344 40.007812 L 498.519531 40.007812 "/>
</g>
<g clip-path="url(#clip26)" clip-rule="nonzero">
<path style="fill:none;stroke-width:1.066978;stroke-linecap:butt;stroke-linejoin:round;stroke:rgb(92.156863%,92.156863%,92.156863%);stroke-opacity:1;stroke-miterlimit:10;" d="M 38.152344 26.726562 L 498.519531 26.726562 "/>
</g>
<g clip-path="url(#clip27)" clip-rule="nonzero">
<path style="fill:none;stroke-width:1.066978;stroke-linecap:butt;stroke-linejoin:round;stroke:rgb(92.156863%,92.156863%,92.156863%);stroke-opacity:1;stroke-miterlimit:10;" d="M 38.152344 13.449219 L 498.519531 13.449219 "/>
</g>
<g clip-path="url(#clip28)" clip-rule="nonzero">
<path style="fill:none;stroke-width:1.066978;stroke-linecap:butt;stroke-linejoin:round;stroke:rgb(92.156863%,92.156863%,92.156863%);stroke-opacity:1;stroke-miterlimit:10;" d="M 59.078125 326.847656 L 59.078125 5.480469 "/>
</g>
<g clip-path="url(#clip29)" clip-rule="nonzero">
<path style="fill:none;stroke-width:1.066978;stroke-linecap:butt;stroke-linejoin:round;stroke:rgb(92.156863%,92.156863%,92.156863%);stroke-opacity:1;stroke-miterlimit:10;" d="M 202.699219 326.847656 L 202.699219 5.480469 "/>
</g>
<g clip-path="url(#clip30)" clip-rule="nonzero">
<path style="fill:none;stroke-width:1.066978;stroke-linecap:butt;stroke-linejoin:round;stroke:rgb(92.156863%,92.156863%,92.156863%);stroke-opacity:1;stroke-miterlimit:10;" d="M 346.324219 326.847656 L 346.324219 5.480469 "/>
</g>
<g clip-path="url(#clip31)" clip-rule="nonzero">
<path style="fill:none;stroke-width:1.066978;stroke-linecap:butt;stroke-linejoin:round;stroke:rgb(92.156863%,92.156863%,92.156863%);stroke-opacity:1;stroke-miterlimit:10;" d="M 489.945312 326.847656 L 489.945312 5.480469 "/>
</g>
<path style=" stroke:none;fill-rule:nonzero;fill:rgb(23.921569%,25.098039%,35.686275%);fill-opacity:1;" d="M 59.078125 324.855469 L 59.367188 324.855469 L 59.367188 312.902344 L 59.078125 312.902344 Z M 59.078125 324.855469 "/>
<path style=" stroke:none;fill-rule:nonzero;fill:rgb(23.921569%,25.098039%,35.686275%);fill-opacity:1;" d="M 59.078125 311.578125 L 59.367188 311.578125 L 59.367188 299.625 L 59.078125 299.625 Z M 59.078125 311.578125 "/>
<path style=" stroke:none;fill-rule:nonzero;fill:rgb(23.921569%,25.098039%,35.686275%);fill-opacity:1;" d="M 59.078125 298.296875 L 60.226562 298.296875 L 60.226562 286.34375 L 59.078125 286.34375 Z M 59.078125 298.296875 "/>
<path style=" stroke:none;fill-rule:nonzero;fill:rgb(23.921569%,25.098039%,35.686275%);fill-opacity:1;" d="M 59.078125 285.019531 L 60.800781 285.019531 L 60.800781 273.066406 L 59.078125 273.066406 Z M 59.078125 285.019531 "/>
<path style=" stroke:none;fill-rule:nonzero;fill:rgb(23.921569%,25.098039%,35.686275%);fill-opacity:1;" d="M 59.078125 271.738281 L 61.949219 271.738281 L 61.949219 259.785156 L 59.078125 259.785156 Z M 59.078125 271.738281 "/>
<path style=" stroke:none;fill-rule:nonzero;fill:rgb(23.921569%,25.098039%,35.686275%);fill-opacity:1;" d="M 59.078125 258.457031 L 63.675781 258.457031 L 63.675781 246.503906 L 59.078125 246.503906 Z M 59.078125 258.457031 "/>
<path style=" stroke:none;fill-rule:nonzero;fill:rgb(23.921569%,25.098039%,35.686275%);fill-opacity:1;" d="M 59.078125 245.179688 L 64.25 245.179688 L 64.25 233.226562 L 59.078125 233.226562 Z M 59.078125 245.179688 "/>
<path style=" stroke:none;fill-rule:nonzero;fill:rgb(23.921569%,25.098039%,35.686275%);fill-opacity:1;" d="M 59.078125 231.898438 L 65.972656 231.898438 L 65.972656 219.945312 L 59.078125 219.945312 Z M 59.078125 231.898438 "/>
<path style=" stroke:none;fill-rule:nonzero;fill:rgb(23.921569%,25.098039%,35.686275%);fill-opacity:1;" d="M 59.078125 218.621094 L 67.410156 218.621094 L 67.410156 206.667969 L 59.078125 206.667969 Z M 59.078125 218.621094 "/>
<path style=" stroke:none;fill-rule:nonzero;fill:rgb(23.921569%,25.098039%,35.686275%);fill-opacity:1;" d="M 59.078125 205.339844 L 67.695312 205.339844 L 67.695312 193.386719 L 59.078125 193.386719 Z M 59.078125 205.339844 "/>
<path style=" stroke:none;fill-rule:nonzero;fill:rgb(23.921569%,25.098039%,35.686275%);fill-opacity:1;" d="M 59.078125 192.058594 L 67.695312 192.058594 L 67.695312 180.105469 L 59.078125 180.105469 Z M 59.078125 192.058594 "/>
<path style=" stroke:none;fill-rule:nonzero;fill:rgb(23.921569%,25.098039%,35.686275%);fill-opacity:1;" d="M 59.078125 178.78125 L 67.695312 178.78125 L 67.695312 166.828125 L 59.078125 166.828125 Z M 59.078125 178.78125 "/>
<path style=" stroke:none;fill-rule:nonzero;fill:rgb(23.921569%,25.098039%,35.686275%);fill-opacity:1;" d="M 59.078125 165.5 L 67.695312 165.5 L 67.695312 153.546875 L 59.078125 153.546875 Z M 59.078125 165.5 "/>
<path style=" stroke:none;fill-rule:nonzero;fill:rgb(23.921569%,25.098039%,35.686275%);fill-opacity:1;" d="M 59.078125 152.21875 L 67.695312 152.21875 L 67.695312 140.265625 L 59.078125 140.265625 Z M 59.078125 152.21875 "/>
<path style=" stroke:none;fill-rule:nonzero;fill:rgb(23.921569%,25.098039%,35.686275%);fill-opacity:1;" d="M 59.078125 138.941406 L 67.695312 138.941406 L 67.695312 126.988281 L 59.078125 126.988281 Z M 59.078125 138.941406 "/>
<path style=" stroke:none;fill-rule:nonzero;fill:rgb(23.921569%,25.098039%,35.686275%);fill-opacity:1;" d="M 59.078125 125.660156 L 70.566406 125.660156 L 70.566406 113.707031 L 59.078125 113.707031 Z M 59.078125 125.660156 "/>
<path style=" stroke:none;fill-rule:nonzero;fill:rgb(23.921569%,25.098039%,35.686275%);fill-opacity:1;" d="M 59.078125 112.382812 L 71.140625 112.382812 L 71.140625 100.429688 L 59.078125 100.429688 Z M 59.078125 112.382812 "/>
<path style=" stroke:none;fill-rule:nonzero;fill:rgb(23.921569%,25.098039%,35.686275%);fill-opacity:1;" d="M 59.078125 99.101562 L 73.152344 99.101562 L 73.152344 87.148438 L 59.078125 87.148438 Z M 59.078125 99.101562 "/>
<path style=" stroke:none;fill-rule:nonzero;fill:rgb(23.921569%,25.098039%,35.686275%);fill-opacity:1;" d="M 59.078125 85.820312 L 74.300781 85.820312 L 74.300781 73.867188 L 59.078125 73.867188 Z M 59.078125 85.820312 "/>
<path style=" stroke:none;fill-rule:nonzero;fill:rgb(23.921569%,25.098039%,35.686275%);fill-opacity:1;" d="M 59.078125 72.542969 L 88.378906 72.542969 L 88.378906 60.589844 L 59.078125 60.589844 Z M 59.078125 72.542969 "/>
<path style=" stroke:none;fill-rule:nonzero;fill:rgb(23.921569%,25.098039%,35.686275%);fill-opacity:1;" d="M 59.078125 59.261719 L 91.25 59.261719 L 91.25 47.308594 L 59.078125 47.308594 Z M 59.078125 59.261719 "/>
<path style=" stroke:none;fill-rule:nonzero;fill:rgb(23.921569%,25.098039%,35.686275%);fill-opacity:1;" d="M 59.078125 45.984375 L 113.367188 45.984375 L 113.367188 34.03125 L 59.078125 34.03125 Z M 59.078125 45.984375 "/>
<path style=" stroke:none;fill-rule:nonzero;fill:rgb(23.921569%,25.098039%,35.686275%);fill-opacity:1;" d="M 59.078125 32.703125 L 349.484375 32.703125 L 349.484375 20.75 L 59.078125 20.75 Z M 59.078125 32.703125 "/>
<path style=" stroke:none;fill-rule:nonzero;fill:rgb(23.921569%,25.098039%,35.686275%);fill-opacity:1;" d="M 59.078125 19.421875 L 477.597656 19.421875 L 477.597656 7.46875 L 59.078125 7.46875 Z M 59.078125 19.421875 "/>
<g style="fill:rgb(30.196078%,30.196078%,30.196078%);fill-opacity:1;">
  <use xlink:href="#glyph0-1" x="21.21875" y="321.583984"/>
  <use xlink:href="#glyph0-2" x="27.21875" y="321.583984"/>
</g>
<g style="fill:rgb(30.196078%,30.196078%,30.196078%);fill-opacity:1;">
  <use xlink:href="#glyph0-3" x="22.21875" y="308.302734"/>
  <use xlink:href="#glyph0-4" x="28.21875" y="308.302734"/>
</g>
<g style="fill:rgb(30.196078%,30.196078%,30.196078%);fill-opacity:1;">
  <use xlink:href="#glyph0-5" x="19.21875" y="295.021484"/>
  <use xlink:href="#glyph0-6" x="27.21875" y="295.021484"/>
</g>
<g style="fill:rgb(30.196078%,30.196078%,30.196078%);fill-opacity:1;">
  <use xlink:href="#glyph0-7" x="22.21875" y="281.744141"/>
  <use xlink:href="#glyph0-4" x="28.21875" y="281.744141"/>
</g>
<g style="fill:rgb(30.196078%,30.196078%,30.196078%);fill-opacity:1;">
  <use xlink:href="#glyph0-4" x="22.21875" y="268.462891"/>
  <use xlink:href="#glyph0-8" x="27.21875" y="268.462891"/>
</g>
<g style="fill:rgb(30.196078%,30.196078%,30.196078%);fill-opacity:1;">
  <use xlink:href="#glyph0-9" x="21.21875" y="255.185547"/>
  <use xlink:href="#glyph0-10" x="27.21875" y="255.185547"/>
</g>
<g style="fill:rgb(30.196078%,30.196078%,30.196078%);fill-opacity:1;">
  <use xlink:href="#glyph0-11" x="26.21875" y="241.904297"/>
  <use xlink:href="#glyph0-12" x="28.21875" y="241.904297"/>
</g>
<g style="fill:rgb(30.196078%,30.196078%,30.196078%);fill-opacity:1;">
  <use xlink:href="#glyph0-13" x="22.21875" y="228.623047"/>
  <use xlink:href="#glyph0-14" x="28.21875" y="228.623047"/>
</g>
<g style="fill:rgb(30.196078%,30.196078%,30.196078%);fill-opacity:1;">
  <use xlink:href="#glyph0-11" x="26.21875" y="215.345703"/>
  <use xlink:href="#glyph0-4" x="28.21875" y="215.345703"/>
</g>
<g style="fill:rgb(30.196078%,30.196078%,30.196078%);fill-opacity:1;">
  <use xlink:href="#glyph0-1" x="22.21875" y="202.064453"/>
  <use xlink:href="#glyph0-15" x="28.21875" y="202.064453"/>
</g>
<g style="fill:rgb(30.196078%,30.196078%,30.196078%);fill-opacity:1;">
  <use xlink:href="#glyph0-15" x="23.21875" y="188.787109"/>
  <use xlink:href="#glyph0-16" x="28.21875" y="188.787109"/>
</g>
<g style="fill:rgb(30.196078%,30.196078%,30.196078%);fill-opacity:1;">
  <use xlink:href="#glyph0-17" x="26.21875" y="175.505859"/>
  <use xlink:href="#glyph0-11" x="31.21875" y="175.505859"/>
</g>
<g style="fill:rgb(30.196078%,30.196078%,30.196078%);fill-opacity:1;">
  <use xlink:href="#glyph0-8" x="22.21875" y="162.224609"/>
  <use xlink:href="#glyph0-12" x="28.21875" y="162.224609"/>
</g>
<g style="fill:rgb(30.196078%,30.196078%,30.196078%);fill-opacity:1;">
  <use xlink:href="#glyph0-8" x="20.21875" y="148.947266"/>
  <use xlink:href="#glyph0-18" x="26.21875" y="148.947266"/>
</g>
<g style="fill:rgb(30.196078%,30.196078%,30.196078%);fill-opacity:1;">
  <use xlink:href="#glyph0-16" x="23.21875" y="135.666016"/>
  <use xlink:href="#glyph0-15" x="28.21875" y="135.666016"/>
</g>
<g style="fill:rgb(30.196078%,30.196078%,30.196078%);fill-opacity:1;">
  <use xlink:href="#glyph0-13" x="21.21875" y="122.384766"/>
  <use xlink:href="#glyph0-19" x="27.21875" y="122.384766"/>
</g>
<g style="fill:rgb(30.196078%,30.196078%,30.196078%);fill-opacity:1;">
  <use xlink:href="#glyph0-11" x="26.21875" y="109.107422"/>
  <use xlink:href="#glyph0-15" x="28.21875" y="109.107422"/>
</g>
<g style="fill:rgb(30.196078%,30.196078%,30.196078%);fill-opacity:1;">
  <use xlink:href="#glyph0-13" x="22.21875" y="95.826172"/>
  <use xlink:href="#glyph0-8" x="27.21875" y="95.826172"/>
</g>
<g style="fill:rgb(30.196078%,30.196078%,30.196078%);fill-opacity:1;">
  <use xlink:href="#glyph0-11" x="25.21875" y="82.548828"/>
  <use xlink:href="#glyph0-2" x="27.21875" y="82.548828"/>
</g>
<g style="fill:rgb(30.196078%,30.196078%,30.196078%);fill-opacity:1;">
  <use xlink:href="#glyph0-19" x="21.21875" y="69.267578"/>
  <use xlink:href="#glyph0-20" x="27.21875" y="69.267578"/>
</g>
<g style="fill:rgb(30.196078%,30.196078%,30.196078%);fill-opacity:1;">
  <use xlink:href="#glyph0-20" x="21.21875" y="55.986328"/>
  <use xlink:href="#glyph0-10" x="27.21875" y="55.986328"/>
</g>
<g style="fill:rgb(30.196078%,30.196078%,30.196078%);fill-opacity:1;">
  <use xlink:href="#glyph0-21" x="24.21875" y="42.708984"/>
  <use xlink:href="#glyph0-22" x="28.21875" y="42.708984"/>
</g>
<g style="fill:rgb(30.196078%,30.196078%,30.196078%);fill-opacity:1;">
  <use xlink:href="#glyph0-17" x="22.21875" y="29.427734"/>
  <use xlink:href="#glyph0-2" x="27.21875" y="29.427734"/>
</g>
<g style="fill:rgb(30.196078%,30.196078%,30.196078%);fill-opacity:1;">
  <use xlink:href="#glyph0-20" x="22.21875" y="16.150391"/>
  <use xlink:href="#glyph0-16" x="28.21875" y="16.150391"/>
</g>
<g style="fill:rgb(30.196078%,30.196078%,30.196078%);fill-opacity:1;">
  <use xlink:href="#glyph0-23" x="56.578125" y="337.982422"/>
</g>
<g style="fill:rgb(30.196078%,30.196078%,30.196078%);fill-opacity:1;">
  <use xlink:href="#glyph0-24" x="195.199219" y="337.982422"/>
  <use xlink:href="#glyph0-23" x="200.199219" y="337.982422"/>
  <use xlink:href="#glyph0-23" x="205.199219" y="337.982422"/>
</g>
<g style="fill:rgb(30.196078%,30.196078%,30.196078%);fill-opacity:1;">
  <use xlink:href="#glyph0-25" x="336.324219" y="337.982422"/>
  <use xlink:href="#glyph0-23" x="341.324219" y="337.982422"/>
  <use xlink:href="#glyph0-23" x="346.324219" y="337.982422"/>
  <use xlink:href="#glyph0-23" x="351.324219" y="337.982422"/>
</g>
<g style="fill:rgb(30.196078%,30.196078%,30.196078%);fill-opacity:1;">
  <use xlink:href="#glyph0-25" x="479.945312" y="337.982422"/>
  <use xlink:href="#glyph0-24" x="484.945312" y="337.982422"/>
  <use xlink:href="#glyph0-23" x="489.945312" y="337.982422"/>
  <use xlink:href="#glyph0-23" x="494.945312" y="337.982422"/>
</g>
<g style="fill:rgb(0%,0%,0%);fill-opacity:1;">
  <use xlink:href="#glyph1-1" x="221.835938" y="350.771484"/>
  <use xlink:href="#glyph1-2" x="229.835938" y="350.771484"/>
  <use xlink:href="#glyph1-3" x="235.835938" y="350.771484"/>
  <use xlink:href="#glyph1-4" x="244.835938" y="350.771484"/>
  <use xlink:href="#glyph1-5" x="250.835938" y="350.771484"/>
  <use xlink:href="#glyph1-6" x="256.835938" y="350.771484"/>
  <use xlink:href="#glyph1-7" x="260.835938" y="350.771484"/>
  <use xlink:href="#glyph1-8" x="263.835938" y="350.771484"/>
  <use xlink:href="#glyph1-9" x="269.835938" y="350.771484"/>
  <use xlink:href="#glyph1-7" x="273.835938" y="350.771484"/>
  <use xlink:href="#glyph1-10" x="276.835938" y="350.771484"/>
  <use xlink:href="#glyph1-11" x="279.835938" y="350.771484"/>
  <use xlink:href="#glyph1-8" x="284.835938" y="350.771484"/>
  <use xlink:href="#glyph1-12" x="290.835938" y="350.771484"/>
  <use xlink:href="#glyph1-13" x="293.835938" y="350.771484"/>
  <use xlink:href="#glyph1-14" x="299.835938" y="350.771484"/>
  <use xlink:href="#glyph1-5" x="303.835938" y="350.771484"/>
  <use xlink:href="#glyph1-11" x="309.835938" y="350.771484"/>
</g>
</g>
</svg>
